<svg width="159" height="41" viewBox="0 0 159 41" fill="none" xmlns="http://www.w3.org/2000/svg">
<path d="M58.856 15.4561H53.288V12.9121H67.568V15.4561H61.976V30.0001H58.856V15.4561Z" fill="white"/>
<path d="M74.1209 17.5921C74.5849 17.5921 74.9849 17.6561 75.3209 17.7841L75.2969 20.5201C74.7849 20.3121 74.2569 20.2081 73.7129 20.2081C72.6889 20.2081 71.9049 20.5041 71.3609 21.0961C70.8329 21.6881 70.5689 22.4721 70.5689 23.4481V30.0001H67.5929V21.3121C67.5929 20.0321 67.5289 18.8881 67.4009 17.8801H70.2089L70.4489 20.0161C70.7529 19.2321 71.2329 18.6321 71.8889 18.2161C72.5449 17.8001 73.2889 17.5921 74.1209 17.5921Z" fill="white"/>
<path d="M88.349 17.8801V30.0001H85.397V28.0561C85.029 28.7281 84.501 29.2561 83.813 29.6401C83.125 30.0081 82.341 30.1921 81.461 30.1921C80.405 30.1921 79.469 29.9361 78.653 29.4241C77.837 28.9121 77.205 28.1841 76.757 27.2401C76.309 26.2961 76.085 25.2001 76.085 23.9521C76.085 22.7041 76.309 21.6001 76.757 20.6401C77.221 19.6641 77.861 18.9121 78.677 18.3841C79.493 17.8401 80.421 17.5681 81.461 17.5681C82.341 17.5681 83.125 17.7601 83.813 18.1441C84.501 18.5121 85.029 19.0321 85.397 19.7041V17.8801H88.349ZM82.277 27.8401C83.269 27.8401 84.037 27.4961 84.581 26.8081C85.125 26.1201 85.397 25.1521 85.397 23.9041C85.397 22.6241 85.125 21.6401 84.581 20.9521C84.037 20.2641 83.261 19.9201 82.253 19.9201C81.261 19.9201 80.485 20.2801 79.925 21.0001C79.381 21.7041 79.109 22.6881 79.109 23.9521C79.109 25.2001 79.381 26.1601 79.925 26.8321C80.485 27.5041 81.269 27.8401 82.277 27.8401Z" fill="white"/>
<path d="M97.3524 14.7121C96.0564 14.7121 95.4084 15.4241 95.4084 16.8481V17.8801H98.1204V20.1361H95.4084V30.0001H92.4084V20.1361H90.1044V17.8801H92.4084V16.7041C92.4084 15.2641 92.7684 14.1601 93.4884 13.3921C94.2244 12.6081 95.2724 12.2161 96.6324 12.2161C97.3844 12.2161 98.0164 12.3121 98.5284 12.5041V14.8801C98.0804 14.7681 97.6884 14.7121 97.3524 14.7121Z" fill="white"/>
<path d="M111.904 17.8801V30.0001H108.952V28.0561C108.584 28.7281 108.056 29.2561 107.368 29.6401C106.68 30.0081 105.896 30.1921 105.016 30.1921C103.96 30.1921 103.024 29.9361 102.208 29.4241C101.392 28.9121 100.76 28.1841 100.312 27.2401C99.8637 26.2961 99.6397 25.2001 99.6397 23.9521C99.6397 22.7041 99.8637 21.6001 100.312 20.6401C100.776 19.6641 101.416 18.9121 102.232 18.3841C103.048 17.8401 103.976 17.5681 105.016 17.5681C105.896 17.5681 106.68 17.7601 107.368 18.1441C108.056 18.5121 108.584 19.0321 108.952 19.7041V17.8801H111.904ZM105.832 27.8401C106.824 27.8401 107.592 27.4961 108.136 26.8081C108.68 26.1201 108.952 25.1521 108.952 23.9041C108.952 22.6241 108.68 21.6401 108.136 20.9521C107.592 20.2641 106.816 19.9201 105.808 19.9201C104.816 19.9201 104.04 20.2801 103.48 21.0001C102.936 21.7041 102.664 22.6881 102.664 23.9521C102.664 25.2001 102.936 26.1601 103.48 26.8321C104.04 27.5041 104.824 27.8401 105.832 27.8401Z" fill="white"/>
<path d="M115.171 12.3361H118.147V30.0001H115.171V12.3361Z" fill="white"/>
<path d="M133.141 17.8801V29.6161C133.141 31.5041 132.621 32.9361 131.581 33.9121C130.541 34.8881 129.013 35.3761 126.997 35.3761C125.125 35.3761 123.477 34.9841 122.053 34.2001L122.533 31.9201C124.005 32.6881 125.469 33.0721 126.925 33.0721C129.085 33.0721 130.165 32.0001 130.165 29.8561V27.4561C129.797 28.1121 129.261 28.6481 128.557 29.0641C127.853 29.4641 127.061 29.6641 126.181 29.6641C125.125 29.6641 124.181 29.4161 123.349 28.9201C122.533 28.4081 121.893 27.6961 121.429 26.7841C120.981 25.8561 120.757 24.8001 120.757 23.6161C120.757 22.4321 120.981 21.3841 121.429 20.4721C121.893 19.5441 122.533 18.8321 123.349 18.3361C124.181 17.8241 125.125 17.5681 126.181 17.5681C127.077 17.5681 127.869 17.7601 128.557 18.1441C129.261 18.5121 129.797 19.0321 130.165 19.7041V17.8801H133.141ZM126.973 27.3121C127.965 27.3121 128.741 26.9841 129.301 26.3281C129.877 25.6721 130.165 24.7681 130.165 23.6161C130.165 22.4641 129.885 21.5601 129.325 20.9041C128.765 20.2481 127.981 19.9201 126.973 19.9201C125.981 19.9201 125.197 20.2481 124.621 20.9041C124.061 21.5601 123.781 22.4641 123.781 23.6161C123.781 24.7681 124.061 25.6721 124.621 26.3281C125.197 26.9841 125.981 27.3121 126.973 27.3121Z" fill="white"/>
<path d="M147.974 17.8801V30.0001H145.022V28.0561C144.654 28.7281 144.126 29.2561 143.438 29.6401C142.75 30.0081 141.966 30.1921 141.086 30.1921C140.03 30.1921 139.094 29.9361 138.278 29.4241C137.462 28.9121 136.83 28.1841 136.382 27.2401C135.934 26.2961 135.71 25.2001 135.71 23.9521C135.71 22.7041 135.934 21.6001 136.382 20.6401C136.846 19.6641 137.486 18.9121 138.302 18.3841C139.118 17.8401 140.046 17.5681 141.086 17.5681C141.966 17.5681 142.75 17.7601 143.438 18.1441C144.126 18.5121 144.654 19.0321 145.022 19.7041V17.8801H147.974ZM141.902 27.8401C142.894 27.8401 143.662 27.4961 144.206 26.8081C144.75 26.1201 145.022 25.1521 145.022 23.9041C145.022 22.6241 144.75 21.6401 144.206 20.9521C143.662 20.2641 142.886 19.9201 141.878 19.9201C140.886 19.9201 140.11 20.2801 139.55 21.0001C139.006 21.7041 138.734 22.6881 138.734 23.9521C138.734 25.2001 139.006 26.1601 139.55 26.8321C140.11 27.5041 140.894 27.8401 141.902 27.8401Z" fill="white"/>
<path d="M157.769 17.5921C158.233 17.5921 158.633 17.6561 158.969 17.7841L158.945 20.5201C158.433 20.3121 157.905 20.2081 157.361 20.2081C156.337 20.2081 155.553 20.5041 155.009 21.0961C154.481 21.6881 154.217 22.4721 154.217 23.4481V30.0001H151.241V21.3121C151.241 20.0321 151.177 18.8881 151.049 17.8801H153.857L154.097 20.0161C154.401 19.2321 154.881 18.6321 155.537 18.2161C156.193 17.8001 156.937 17.5921 157.769 17.5921Z" fill="white"/>
<path d="M41 20.5C41 31.8218 31.8218 41 20.5 41C9.17816 41 0 31.8218 0 20.5C0 9.17816 9.17816 0 20.5 0C31.8218 0 41 9.17816 41 20.5Z" fill="white"/>
<path d="M19.344 15.244H13.312V12.488H28.782V15.244H22.724V31H19.344V15.244Z" fill="#5B9BF3"/>
</svg>
